# xmcd
#
# Track frame offsets:
# 150
# 21090
# 41407
# 60302
# 84941
# 103046
# 118959
# 139937
# 165750
# 185033
# 202997
# 226486
# 246531
# 269385
# 290588
# 310286
#
# Disc length: 4366 seconds
#
# Revision: 0
# Processed by: cddbd v1.5.1PL0 Copyright (c) Steve Scherf et al.
# Submitted via: Audion 3.0.2 (http://www.panic.com/audion/)
#
DISCID=e1110c10
DTITLE=by Gina - Acoustic Soul
DYEAR=1900
DGENRE=
TTITLE0=Ac Soul 1
TTITLE1=Ac Soul 2
TTITLE2=Ac Soul 3
TTITLE3=Ac Soul 4
TTITLE4=Ac Soul 5
TTITLE5=Ac Soul 6
TTITLE6=Ac Soul 7
TTITLE7=Ac Soul 8
TTITLE8=Ac Soul 9
TTITLE9=Ac Soul 10
TTITLE10=Ac Soul 11
TTITLE11=Ac Soul 12
TTITLE12=Ac Soul 13
TTITLE13=Ac Soul 14
TTITLE14=Ac Soul 15
TTITLE15=Ac Soul 16
EXTD=
EXTT0=
EXTT1=
EXTT2=
EXTT3=
EXTT4=
EXTT5=
EXTT6=
EXTT7=
EXTT8=
EXTT9=
EXTT10=
EXTT11=
EXTT12=
EXTT13=
EXTT14=
EXTT15=
PLAYORDER=
